<svg width="14" height="14" viewBox="0 0 14 14" fill="none" xmlns="http://www.w3.org/2000/svg">
<path d="M8.61811 7.28578L7.70111 8.16078V4.19878C7.70111 4.01313 7.62736 3.83508 7.49608 3.7038C7.36481 3.57253 7.18676 3.49878 7.00111 3.49878C6.81546 3.49878 6.63741 3.57253 6.50613 3.7038C6.37486 3.83508 6.30111 4.01313 6.30111 4.19878V8.11178L5.39811 7.20178C5.26629 7.06997 5.08752 6.99592 4.90111 6.99592C4.7147 6.99592 4.53592 7.06997 4.40411 7.20178C4.27229 7.33359 4.19824 7.51237 4.19824 7.69878C4.19824 7.88519 4.27229 8.06397 4.40411 8.19578L6.50411 10.2958C6.57068 10.3595 6.64918 10.4095 6.73511 10.4428C6.8189 10.4798 6.9095 10.4989 7.00111 10.4989C7.09272 10.4989 7.18332 10.4798 7.26711 10.4428C7.30826 10.4262 7.34617 10.4025 7.37911 10.3728C7.41813 10.3561 7.45374 10.3324 7.48411 10.3028L9.58411 8.30078C9.7187 8.17268 9.7969 7.99636 9.8015 7.8106C9.80609 7.62485 9.73671 7.44488 9.60861 7.31028C9.48051 7.17568 9.30419 7.09749 9.11843 7.09289C8.93268 7.0883 8.7527 7.15768 8.61811 7.28578Z" fill="white"/>
<path d="M7 0C5.61553 0 4.26216 0.410543 3.11101 1.17971C1.95987 1.94888 1.06266 3.04213 0.532846 4.32122C0.00303299 5.6003 -0.13559 7.00777 0.134506 8.36563C0.404603 9.7235 1.07129 10.9708 2.05026 11.9497C3.02922 12.9287 4.2765 13.5954 5.63437 13.8655C6.99224 14.1356 8.39971 13.997 9.67879 13.4672C10.9579 12.9373 12.0511 12.0401 12.8203 10.889C13.5895 9.73785 14 8.38447 14 7C14 6.08075 13.8189 5.1705 13.4672 4.32122C13.1154 3.47194 12.5998 2.70026 11.9498 2.05025C11.2997 1.40024 10.5281 0.884626 9.67879 0.532843C8.82951 0.18106 7.91926 0 7 0ZM7 12.6C5.89243 12.6 4.80973 12.2716 3.88881 11.6562C2.96789 11.0409 2.25013 10.1663 1.82628 9.14303C1.40243 8.11976 1.29153 6.99379 1.50761 5.90749C1.72368 4.8212 2.25703 3.82338 3.04021 3.0402C3.82338 2.25703 4.8212 1.72368 5.9075 1.5076C6.99379 1.29153 8.11976 1.40242 9.14303 1.82627C10.1663 2.25013 11.0409 2.96789 11.6562 3.88881C12.2716 4.80972 12.6 5.89243 12.6 7C12.6 8.48521 12.01 9.9096 10.9598 10.9598C9.9096 12.01 8.48522 12.6 7 12.6Z" fill="white"/>
</svg>
