<svg width="22" height="22" viewBox="0 0 22 22" fill="none" xmlns="http://www.w3.org/2000/svg">
<g clip-path="url(#clip0_169_274)">
<path d="M6.46632 4.85303H7.76044V6.14715H6.46632V4.85303ZM12.9688 11.2249C12.2091 11.2492 11.5598 11.2616 11.039 11.2616C10.8051 11.2616 10.3682 11.1193 9.98269 10.9937C9.56771 10.8586 9.17573 10.7309 8.82222 10.6905C7.51278 10.5406 6.46507 11.5936 6.46507 12.6844C6.44941 15.3451 11.6264 16.1713 13.7334 14.9004C14.4995 14.4697 14.9213 13.8359 14.9213 13.1158C14.9213 12.0501 14.042 11.1907 12.9688 11.2249ZM11.039 14.1949C9.09178 14.1949 7.66424 13.291 7.7635 12.6554C7.83114 12.2239 8.2318 11.9257 8.67529 11.9762C9.23577 12.0403 10.282 12.5557 11.039 12.5557C11.5736 12.5557 12.2368 12.5431 13.0103 12.5183C13.3476 12.5076 13.6272 12.777 13.6272 13.1157C13.6271 13.6462 12.6591 14.1949 11.039 14.1949ZM19.2498 19.7354C18.4176 19.7354 17.9638 19.9489 17.5992 20.1205C17.2882 20.2669 17.0425 20.3824 16.4996 20.3824C15.9567 20.3824 15.7111 20.2668 15.4001 20.1205C14.4651 19.6077 13.0312 19.609 12.0991 20.1205C11.7881 20.2669 11.5425 20.3824 10.9996 20.3824C10.4568 20.3824 10.2112 20.2668 9.90022 20.1205C8.96233 19.607 7.53233 19.6093 6.59927 20.1206C6.28829 20.2669 6.04267 20.3825 5.49983 20.3825C4.95695 20.3825 4.71132 20.2669 4.40035 20.1206C3.46539 19.6077 2.03146 19.6091 1.0994 20.1206C0.78842 20.2669 0.542796 20.3825 0 20.3825V21.6766C0.832118 21.6766 1.28588 21.4631 1.65047 21.2915C1.96145 21.1451 2.20707 21.0295 2.74987 21.0295C3.29271 21.0295 3.53833 21.1451 3.84931 21.2915C4.78875 21.8058 6.21949 21.8017 7.1503 21.2914C7.46128 21.1451 7.7069 21.0295 8.24974 21.0295C8.79254 21.0295 9.03816 21.1451 9.34914 21.2914C9.71373 21.463 10.1675 21.6766 10.9996 21.6766C11.8317 21.6766 12.2855 21.463 12.6501 21.2914C12.9611 21.1451 13.2067 21.0295 13.7495 21.0295C14.2924 21.0295 14.538 21.1451 14.8491 21.2914C15.7884 21.8053 17.2166 21.8024 18.1502 21.2914C18.4612 21.1451 18.7068 21.0295 19.2497 21.0295C19.7927 21.0295 20.0383 21.1451 20.3493 21.2914C20.7139 21.463 21.1678 21.6765 21.9999 21.6765V20.3824C21.457 20.3824 21.2114 20.2668 20.9003 20.1205C20.5357 19.9489 20.0819 19.7354 19.2498 19.7354Z" fill="#232738"/>
<path d="M20.9006 16.8852C20.4527 16.6431 19.6686 16.4217 18.8204 16.5209C21.4777 14.6343 22.9184 11.3118 21.3436 6.2725L21.029 5.26589L20.2741 6.00233C18.7146 7.52378 15.136 8.40766 12.6899 8.29253C14.8989 4.91924 12.3746 0.285781 8.32791 0.323656C6.06613 0.323613 4.13876 1.78191 3.43597 3.80755C2.2462 4.97959 1.81082 5.03735 0.676133 5.03735H0.0242L0.0291176 5.68928C0.0364078 7.20836 1.25676 8.56067 3.13517 8.85181C0.886514 12.2508 2.24568 15.3796 5.84851 17.1278C5.74644 17.1402 5.6323 17.1471 5.50035 17.1471C4.95746 17.1471 4.7118 17.0315 4.40078 16.8852C4.03614 16.7136 3.58233 16.5001 2.75017 16.5001C1.91801 16.5001 1.46421 16.7136 1.09957 16.8852C0.788549 17.0316 0.542882 17.1471 0 17.1471V18.4413C0.832204 18.4413 1.28596 18.2277 1.6506 18.0561C1.96162 17.9098 2.20729 17.7942 2.75017 17.7942C3.2931 17.7942 3.53876 17.9098 3.84978 18.0561C4.21442 18.2277 4.66818 18.4413 5.50039 18.4413C6.74723 18.4413 7.10544 17.976 7.72096 17.844C9.99702 18.5124 12.6243 18.6504 15.0124 18.1314C15.9268 18.5878 17.3243 18.518 18.1507 18.0561C18.4617 17.9098 18.7073 17.7942 19.2502 17.7942C19.793 17.7942 20.0386 17.9098 20.3496 18.0561C20.7142 18.2277 21.1679 18.4413 22 18.4413V17.1471C21.4572 17.1471 21.2115 17.0316 20.9006 16.8852ZM1.45765 6.30088C2.08909 6.24209 2.60044 6.08533 3.15687 5.72375C3.18482 6.38108 3.33602 7.02011 3.60192 7.61351C2.69366 7.49203 1.80814 7.13921 1.45765 6.30088ZM17.2047 15.9954C13.1564 18.1126 6.41149 17.1838 4.08273 14.1886C2.49368 12.1447 3.73884 9.955 5.06319 8.47798L5.40147 8.1007L5.11629 7.68184C3.36203 5.15304 5.24691 1.59107 8.32804 1.61777C11.8088 1.61104 13.5351 5.9293 11.0014 8.31522L10.1258 9.14704L11.3033 9.41522C13.7451 9.97139 18.0087 9.19764 20.3676 7.58577C21.5739 12.5054 19.3564 14.8701 17.2047 15.9954Z" fill="#232738"/>
</g>
<defs>
<clipPath id="clip0_169_274">
<rect width="22" height="22" fill="white"/>
</clipPath>
</defs>
</svg>
