<svg width="28" height="28" viewBox="0 0 28 28" fill="none" xmlns="http://www.w3.org/2000/svg">
<g opacity="0.5">
<path d="M19.8333 3.50002H24.4999C24.8093 3.50002 25.1061 3.62294 25.3249 3.84173C25.5437 4.06052 25.6666 4.35727 25.6666 4.66669V23.3334C25.6666 23.6428 25.5437 23.9395 25.3249 24.1583C25.1061 24.3771 24.8093 24.5 24.4999 24.5H3.49992C3.1905 24.5 2.89375 24.3771 2.67496 24.1583C2.45617 23.9395 2.33325 23.6428 2.33325 23.3334V4.66669C2.33325 4.35727 2.45617 4.06052 2.67496 3.84173C2.89375 3.62294 3.1905 3.50002 3.49992 3.50002H8.16659V1.16669H10.4999V3.50002H17.4999V1.16669H19.8333V3.50002ZM17.4999 5.83335H10.4999V8.16669H8.16659V5.83335H4.66659V10.5H23.3333V5.83335H19.8333V8.16669H17.4999V5.83335ZM23.3333 12.8334H4.66659V22.1667H23.3333V12.8334Z" fill="#B3B4BA"/>
</g>
</svg>
