<svg width="22" height="22" viewBox="0 0 22 22" fill="none" xmlns="http://www.w3.org/2000/svg">
<path d="M19.25 0H2.75C1.23363 0 0 1.23363 0 2.75V9.625C0 11.1414 1.23363 12.375 2.75 12.375H19.25C20.7664 12.375 22 11.1414 22 9.625V2.75C22 1.23363 20.7664 0 19.25 0ZM4.46875 11V9.625H17.5312V11H4.46875ZM20.625 9.625C20.625 10.3832 20.0082 11 19.25 11H18.9062V8.9375C18.9062 8.55783 18.5985 8.25 18.2188 8.25H3.78125C3.40154 8.25 3.09375 8.55783 3.09375 8.9375V11H2.75C1.99182 11 1.375 10.3832 1.375 9.625V6.875H19.25C19.6297 6.875 19.9375 6.56717 19.9375 6.1875C19.9375 5.80783 19.6297 5.5 19.25 5.5H1.375V2.75C1.375 1.99182 1.99182 1.375 2.75 1.375H19.25C20.0082 1.375 20.625 1.99182 20.625 2.75V9.625ZM5.5 13.0625C5.12029 13.0625 4.8125 13.3703 4.8125 13.75V17.875C4.8125 18.6332 4.19568 19.25 3.4375 19.25C3.05779 19.25 2.75 19.5578 2.75 19.9375C2.75 20.3172 3.05779 20.625 3.4375 20.625C4.95387 20.625 6.1875 19.3914 6.1875 17.875V13.75C6.1875 13.3703 5.87971 13.0625 5.5 13.0625ZM18.9062 20.625C18.1481 20.625 17.5312 20.0082 17.5312 19.25V14.7812C17.5312 14.4016 17.2235 14.0938 16.8438 14.0938C16.464 14.0938 16.1562 14.4016 16.1562 14.7812V19.25C16.1562 20.7664 17.3899 22 18.9062 22C19.286 22 19.5938 21.6922 19.5938 21.3125C19.5938 20.9328 19.286 20.625 18.9062 20.625ZM13.0625 20.625C12.3043 20.625 11.6875 20.0082 11.6875 19.25V15.4688C11.6875 15.0891 11.3797 14.7812 11 14.7812C10.6203 14.7812 10.3125 15.0891 10.3125 15.4688V19.25C10.3125 20.7664 11.5461 22 13.0625 22C13.4422 22 13.75 21.6922 13.75 21.3125C13.75 20.9328 13.4422 20.625 13.0625 20.625ZM8.25 14.0938C7.87029 14.0938 7.5625 14.4016 7.5625 14.7812V19.9375C7.5625 20.3172 7.87029 20.625 8.25 20.625C8.62971 20.625 8.9375 20.3172 8.9375 19.9375V14.7812C8.9375 14.4016 8.62971 14.0938 8.25 14.0938ZM13.75 13.0625C13.3703 13.0625 13.0625 13.3703 13.0625 13.75V17.5312C13.0625 17.9109 13.3703 18.2188 13.75 18.2188C14.1297 18.2188 14.4375 17.9109 14.4375 17.5312V13.75C14.4375 13.3703 14.1297 13.0625 13.75 13.0625Z" fill="#232738"/>
<path d="M18.5625 3.78125C18.9422 3.78125 19.25 3.47345 19.25 3.09375C19.25 2.71405 18.9422 2.40625 18.5625 2.40625C18.1828 2.40625 17.875 2.71405 17.875 3.09375C17.875 3.47345 18.1828 3.78125 18.5625 3.78125Z" fill="#232738"/>
<path d="M15.8125 3.78125C16.1922 3.78125 16.5 3.47345 16.5 3.09375C16.5 2.71405 16.1922 2.40625 15.8125 2.40625C15.4328 2.40625 15.125 2.71405 15.125 3.09375C15.125 3.47345 15.4328 3.78125 15.8125 3.78125Z" fill="#232738"/>
</svg>
