<svg width="29" height="29" viewBox="0 0 29 29" fill="none" xmlns="http://www.w3.org/2000/svg">
<path d="M18.2553 15.6477H10.4315V13.0397H18.2553V15.6477ZM5.21561 7.82385V10.4318H2.60768V13.0397C2.26184 13.0397 1.93018 13.1771 1.68563 13.4216C1.44109 13.6662 1.30371 13.9979 1.30371 14.3437C1.30371 14.6895 1.44109 15.0212 1.68563 15.2657C1.93018 15.5103 2.26184 15.6477 2.60768 15.6477V18.2556H5.21561V20.8635H9.12751V7.82385H5.21561ZM26.0791 13.0397V10.4318H23.4712V7.82385H19.5593V20.8635H23.4712V18.2556H26.0791V15.6477C26.4249 15.6477 26.7566 15.5103 27.0011 15.2657C27.2457 15.0212 27.3831 14.6895 27.3831 14.3437C27.3831 13.9979 27.2457 13.6662 27.0011 13.4216C26.7566 13.1771 26.4249 13.0397 26.0791 13.0397Z" fill="#232738"/>
</svg>
