<svg width="28" height="28" viewBox="0 0 28 28" fill="none" xmlns="http://www.w3.org/2000/svg">
<path d="M13.4489 15.0147L13.7625 15.017L14.3359 15.0259L14.8489 15.0416L15.307 15.0651C16.3867 15.1357 17.0116 15.2914 17.6623 15.6229C18.7162 16.1601 19.5728 17.0171 20.1095 18.0712L20.1644 18.181L20.2641 18.3971L20.3515 18.6144L20.3895 18.7253L20.4601 18.9538C20.4713 18.993 20.4814 19.0322 20.4903 19.0736L20.5463 19.3256L20.5687 19.46L20.6102 19.7501L20.6438 20.0704L20.6695 20.4277L20.6886 20.8275L20.7076 21.5186L20.7188 22.6408L20.7199 23.9736C20.7199 24.2706 20.6019 24.5555 20.3919 24.7656C20.1819 24.9756 19.897 25.0936 19.5999 25.0936H2.79993C2.50289 25.0936 2.21801 24.9756 2.00797 24.7656C1.79793 24.5555 1.67993 24.2706 1.67993 23.9736V22.615L1.68441 21.971L1.69337 21.3965L1.70905 20.8835L1.73145 20.4266C1.80201 19.3469 1.95881 18.7219 2.29033 18.0712C2.82702 17.0171 3.6837 16.1601 4.73753 15.6229C5.43193 15.2701 6.09609 15.1155 7.31577 15.0517L7.79961 15.0326L8.34281 15.0214L8.95097 15.0147H13.4489ZM23.2623 15.6229C24.3162 16.1601 25.1728 17.0171 25.7095 18.0712L25.8159 18.2896L25.8641 18.3971L25.9503 18.6144L25.9895 18.7253L26.0601 18.9538C26.0713 18.993 26.0803 19.0322 26.0903 19.0736L26.1463 19.3256C26.162 19.4141 26.1766 19.5048 26.1911 19.6011L26.2281 19.9058L26.2572 20.244L26.2886 20.8264L26.3076 21.5186L26.3177 22.3362L26.3199 23.9725C26.3196 24.2579 26.2103 24.5325 26.0143 24.7401C25.8184 24.9477 25.5505 25.0726 25.2656 25.0893C24.9806 25.106 24.7 25.0133 24.4811 24.8301C24.2622 24.6469 24.1215 24.387 24.0878 24.1035L24.0799 23.9725V22.7102L24.0687 21.6418L24.0519 21.0056L24.0351 20.6494L24.0127 20.3414L23.987 20.0749C23.9818 20.0349 23.9762 19.9949 23.9702 19.955L23.9343 19.74C23.9165 19.6475 23.8941 19.5559 23.8671 19.4656L23.8111 19.3066L23.7484 19.1587C23.4644 18.5674 23.0136 18.0722 22.4515 17.7341L22.2454 17.6198C21.9812 17.4847 21.7815 17.2502 21.6901 16.968C21.5987 16.6857 21.623 16.3787 21.7577 16.1143C21.8924 15.85 22.1265 15.6498 22.4086 15.5579C22.6907 15.466 22.9977 15.4898 23.2623 15.624V15.6229ZM13.4097 17.2547H8.99129L8.21065 17.2637L7.56777 17.2838L7.20825 17.304L6.89465 17.3309L6.62249 17.3645L6.38729 17.4059C6.25454 17.4321 6.12389 17.4681 5.99641 17.5134L5.83177 17.5818L5.75449 17.6198C5.06986 17.9696 4.5259 18.5437 4.21337 19.2461L4.15065 19.4186C4.11919 19.5175 4.09301 19.6181 4.07225 19.7198L4.03193 19.955L3.99833 20.2272L3.97145 20.5408L3.94233 21.1008L3.92665 21.7862L3.91993 22.8525H18.4788L18.4755 22.1402L18.4687 21.6384L18.4519 21L18.4351 20.645L18.4127 20.3358L18.3859 20.0693L18.3523 19.8386L18.3119 19.637C18.305 19.6066 18.2975 19.5763 18.2895 19.5462L18.238 19.3782L18.1787 19.2259L18.1137 19.0882C17.7639 18.4035 17.1899 17.8596 16.4875 17.547L16.3139 17.4843C16.2152 17.4529 16.1151 17.4268 16.0137 17.4059L15.7774 17.3645L15.5052 17.3309L15.1916 17.304L14.6316 17.276L13.9473 17.2592L13.4097 17.2547ZM11.1999 2.6936C11.8618 2.6936 12.5172 2.82397 13.1287 3.07725C13.7401 3.33053 14.2957 3.70178 14.7637 4.16979C15.2318 4.63779 15.603 5.1934 15.8563 5.80488C16.1096 6.41636 16.2399 7.07174 16.2399 7.7336C16.2399 8.39547 16.1096 9.05085 15.8563 9.66233C15.603 10.2738 15.2318 10.8294 14.7637 11.2974C14.2957 11.7654 13.7401 12.1367 13.1287 12.39C12.5172 12.6432 11.8618 12.7736 11.1999 12.7736C9.86324 12.7736 8.5813 12.2426 7.63611 11.2974C6.69093 10.3522 6.15993 9.0703 6.15993 7.7336C6.15993 6.39691 6.69093 5.11497 7.63611 4.16979C8.5813 3.2246 9.86324 2.6936 11.1999 2.6936ZM19.3983 3.41376C20.1436 3.86179 20.7602 4.49513 21.188 5.25214C21.6159 6.00915 21.8405 6.86404 21.8399 7.7336C21.8402 8.60295 21.6155 9.45757 21.1876 10.2144C20.7598 10.9711 20.1434 11.6043 19.3983 12.0523C19.1441 12.2013 18.8414 12.244 18.5559 12.1713C18.2703 12.0986 18.0249 11.9163 17.8729 11.6639C17.7208 11.4115 17.6744 11.1094 17.7435 10.8229C17.8127 10.5365 17.992 10.2889 18.2425 10.1338C18.6568 9.88499 18.9995 9.53315 19.2374 9.11253C19.4753 8.69191 19.6002 8.21684 19.5999 7.7336C19.5999 6.73904 19.0791 5.83632 18.2425 5.33232C17.992 5.17717 17.8127 4.92956 17.7435 4.64315C17.6744 4.35673 17.7208 4.05459 17.8729 3.8022C18.0249 3.54981 18.2703 3.36751 18.5559 3.2948C18.8414 3.22209 19.1441 3.26483 19.3983 3.41376ZM11.1999 4.9336C10.8322 4.9336 10.4681 5.00603 10.1284 5.14674C9.78871 5.28745 9.48004 5.4937 9.22003 5.7537C8.96003 6.01371 8.75378 6.32238 8.61307 6.66209C8.47236 7.0018 8.39993 7.3659 8.39993 7.7336C8.39993 8.10131 8.47236 8.46541 8.61307 8.80512C8.75378 9.14483 8.96003 9.4535 9.22003 9.7135C9.48004 9.97351 9.78871 10.1798 10.1284 10.3205C10.4681 10.4612 10.8322 10.5336 11.1999 10.5336C11.9425 10.5336 12.6547 10.2386 13.1798 9.7135C13.7049 9.1884 13.9999 8.47621 13.9999 7.7336C13.9999 6.991 13.7049 6.27881 13.1798 5.7537C12.6547 5.2286 11.9425 4.9336 11.1999 4.9336Z" fill="#28BFFF"/>
</svg>
