<svg width="29" height="29" viewBox="0 0 29 29" fill="none" xmlns="http://www.w3.org/2000/svg">
<path opacity="0.3" d="M26.2967 25.1013C24.9699 25.1013 24.2288 24.6591 23.6909 24.3363C23.2487 24.0734 22.9738 23.906 22.3163 23.906C21.647 23.906 21.384 24.0614 20.9417 24.3363C20.3919 24.6591 19.6628 25.1013 18.336 25.1013C17.0092 25.1013 16.2681 24.6591 15.7302 24.3363C15.2879 24.0734 15.013 23.906 14.3556 23.906C13.6862 23.906 13.4233 24.0614 12.981 24.3363C12.4312 24.6591 11.6901 25.1013 10.3633 25.1013C9.03651 25.1013 8.29542 24.6591 7.75754 24.3363C7.31527 24.0614 7.04036 23.906 6.38294 23.906C5.72552 23.906 5.4506 24.0614 5.00834 24.3363C4.4585 24.6591 3.71741 25.1013 2.39062 25.1013V22.7107C3.05999 22.7107 3.32296 22.5553 3.76522 22.2804C4.31506 21.9577 5.05615 21.5154 6.38294 21.5154C7.70973 21.5154 8.45081 21.9577 8.9887 22.2804C9.43096 22.5553 9.69393 22.7107 10.3633 22.7107C11.0327 22.7107 11.2956 22.5553 11.7379 22.2804C12.2877 21.9577 13.0288 21.5154 14.3556 21.5154C15.6824 21.5154 16.4235 21.9577 16.9614 22.2804C17.4036 22.5434 17.6786 22.7107 18.336 22.7107C18.9934 22.7107 19.2683 22.5553 19.7106 22.2804C20.2485 21.9577 20.9895 21.5154 22.3163 21.5154C23.6431 21.5154 24.3842 21.9577 24.9221 22.2804C25.3644 22.5553 25.6273 22.7107 26.2967 22.7107V25.1013ZM26.2967 19.7225C24.9699 19.7225 24.2288 19.2802 23.6909 18.9575C23.2487 18.6945 22.9738 18.5272 22.3163 18.5272C21.647 18.5272 21.384 18.6826 20.9417 18.9575C20.4038 19.2802 19.6628 19.7225 18.336 19.7225C17.0092 19.7225 16.2681 19.2802 15.7302 18.9575C15.2879 18.6945 15.013 18.5272 14.3556 18.5272C13.6862 18.5272 13.4233 18.6826 12.981 18.9575C12.4431 19.2802 11.702 19.7225 10.3753 19.7225C9.04847 19.7225 8.30738 19.2802 7.76949 18.9575C7.32723 18.6945 7.05231 18.5272 6.39489 18.5272C5.73747 18.5272 5.46255 18.6826 5.02029 18.9575C4.4585 19.2802 3.71741 19.7225 2.39062 19.7225V17.3319C3.05999 17.3319 3.32296 17.1765 3.76522 16.9016C4.30311 16.5788 5.0442 16.1366 6.37099 16.1366C7.69777 16.1366 8.43886 16.5788 8.97675 16.9016C9.41901 17.1645 9.69393 17.3319 10.3513 17.3319C11.0207 17.3319 11.2837 17.1765 11.7259 16.9016C12.2638 16.5788 13.0049 16.1366 14.3317 16.1366C15.6585 16.1366 16.3996 16.5788 16.9375 16.9016C17.3797 17.1645 17.6546 17.3319 18.3121 17.3319C18.9695 17.3319 19.2444 17.1765 19.6867 16.9016C20.2246 16.5788 20.9656 16.1366 22.2924 16.1366C23.6192 16.1366 24.3603 16.5788 24.8982 16.9016C25.3405 17.1645 25.6154 17.3319 26.2728 17.3319V19.7225H26.2967ZM10.3633 14.3436C11.0327 14.3436 11.2956 14.1882 11.7379 13.9133C12.2877 13.5906 13.0288 13.1483 14.3556 13.1483C15.6824 13.1483 16.4235 13.5906 16.9614 13.9133C17.4036 14.1763 17.6786 14.3436 18.336 14.3436C18.9934 14.3436 19.2683 14.1882 19.7106 13.9133C19.854 13.8296 20.0214 13.734 20.2006 13.6384L12.5268 5.97649C10.6741 4.12377 8.96479 3.57393 5.97654 3.58588V6.57414C8.15199 6.56219 9.43096 7.04031 10.7577 8.3671L11.9531 9.5624L8.06832 13.4471C8.43886 13.5906 8.73769 13.7699 8.9887 13.9133C9.43096 14.1882 9.69393 14.3436 10.3633 14.3436Z" fill="black"/>
<path opacity="0.3" d="M19.7226 9.56245C21.373 9.56245 22.7109 8.22457 22.7109 6.5742C22.7109 4.92383 21.373 3.58594 19.7226 3.58594C18.0723 3.58594 16.7344 4.92383 16.7344 6.5742C16.7344 8.22457 18.0723 9.56245 19.7226 9.56245Z" fill="black"/>
<path d="M26.2967 19.7225H26.2728H26.2967ZM11.9531 9.5624L8.06832 13.4471C8.43886 13.5906 8.73769 13.7699 8.9887 13.9133C9.43096 14.1882 9.69393 14.3436 10.3633 14.3436C11.0327 14.3436 11.2956 14.1882 11.7379 13.9133C12.2877 13.5906 13.0288 13.1483 14.3556 13.1483C15.6824 13.1483 16.4235 13.5906 16.9614 13.9133C17.4036 14.1763 17.6786 14.3436 18.336 14.3436C18.9934 14.3436 19.2683 14.1882 19.7106 13.9133C19.854 13.8296 20.0214 13.734 20.2006 13.6384L12.5268 5.97649C10.6741 4.12377 8.96479 3.57393 5.97654 3.58588V6.57414C8.15199 6.56219 9.43096 7.04031 10.7577 8.3671L11.9531 9.5624ZM6.39489 18.5272C7.05231 18.5272 7.32723 18.6945 7.76949 18.9575C8.30738 19.2802 9.04847 19.7225 10.3753 19.7225C11.702 19.7225 12.4431 19.2802 12.981 18.9575C13.4233 18.6826 13.6862 18.5272 14.3556 18.5272C15.013 18.5272 15.2879 18.6945 15.7302 18.9575C16.2681 19.2802 17.0092 19.7225 18.336 19.7225C19.6628 19.7225 20.4038 19.2802 20.9417 18.9575C21.384 18.6826 21.647 18.5272 22.3163 18.5272C22.9738 18.5272 23.2487 18.6945 23.6909 18.9575C24.2288 19.2802 24.958 19.7105 26.2728 19.7225V17.3319C25.6154 17.3319 25.3405 17.1645 24.8982 16.9016C24.3603 16.5788 23.6192 16.1366 22.2924 16.1366C20.9656 16.1366 20.2246 16.5788 19.6867 16.9016C19.2444 17.1765 18.9695 17.3319 18.3121 17.3319C17.6546 17.3319 17.3797 17.1645 16.9375 16.9016C16.3996 16.5788 15.6585 16.1366 14.3317 16.1366C13.0049 16.1366 12.2638 16.5788 11.7259 16.9016C11.2837 17.1765 11.0207 17.3319 10.3513 17.3319C9.69393 17.3319 9.41901 17.1645 8.97675 16.9016C8.43886 16.5788 7.69777 16.1366 6.37099 16.1366C5.0442 16.1366 4.30311 16.5788 3.76522 16.9016C3.32296 17.1765 3.05999 17.3319 2.39062 17.3319V19.7225C3.71741 19.7225 4.4585 19.2802 5.02029 18.9575C5.46255 18.6826 5.73747 18.5272 6.39489 18.5272ZM22.3163 21.5154C20.9895 21.5154 20.2485 21.9577 19.7106 22.2804C19.2683 22.5553 18.9934 22.7107 18.336 22.7107C17.6786 22.7107 17.4036 22.5434 16.9614 22.2804C16.4235 21.9577 15.6824 21.5154 14.3556 21.5154C13.0288 21.5154 12.2877 21.9577 11.7379 22.2804C11.2956 22.5553 11.0327 22.7107 10.3633 22.7107C9.69393 22.7107 9.43096 22.5553 8.9887 22.2804C8.45081 21.9577 7.70973 21.5154 6.38294 21.5154C5.05615 21.5154 4.31506 21.9577 3.76522 22.2804C3.32296 22.5553 3.05999 22.7107 2.39062 22.7107V25.1013C3.71741 25.1013 4.4585 24.6591 5.00834 24.3363C5.4506 24.0614 5.72552 23.906 6.38294 23.906C7.04036 23.906 7.31527 24.0614 7.75754 24.3363C8.29542 24.6591 9.03651 25.1013 10.3633 25.1013C11.6901 25.1013 12.4312 24.6591 12.981 24.3363C13.4233 24.0614 13.6862 23.906 14.3556 23.906C15.013 23.906 15.2879 24.0734 15.7302 24.3363C16.2681 24.6591 17.0092 25.1013 18.336 25.1013C19.6628 25.1013 20.3919 24.6591 20.9417 24.3363C21.384 24.0614 21.647 23.906 22.3163 23.906C22.9738 23.906 23.2487 24.0734 23.6909 24.3363C24.2288 24.6591 24.9699 25.1013 26.2967 25.1013V22.7107C25.6273 22.7107 25.3644 22.5553 24.9221 22.2804C24.3842 21.9577 23.6431 21.5154 22.3163 21.5154Z" fill="#232738"/>
<path d="M19.7226 9.56245C21.373 9.56245 22.7109 8.22457 22.7109 6.5742C22.7109 4.92383 21.373 3.58594 19.7226 3.58594C18.0723 3.58594 16.7344 4.92383 16.7344 6.5742C16.7344 8.22457 18.0723 9.56245 19.7226 9.56245Z" fill="#232738"/>
</svg>
