<svg width="29" height="29" viewBox="0 0 29 29" fill="none" xmlns="http://www.w3.org/2000/svg">
<path d="M24.8289 12.1395L23.1937 7.2328C22.9565 6.51858 22.5002 5.89729 21.8897 5.45718C21.2793 5.01708 20.5456 4.78056 19.793 4.78123H16.7343V2.39062H11.9531V4.78123H8.89427C8.1417 4.78056 7.40805 5.01708 6.79757 5.45718C6.18709 5.89729 5.73084 6.51858 5.49363 7.2328L3.85846 12.1395C3.4241 12.3218 3.05315 12.6281 2.79206 13.0202C2.53097 13.4122 2.39133 13.8726 2.39062 14.3437V20.3202C2.39062 21.2202 2.89624 21.996 3.63255 22.4036C3.61701 22.4825 3.58593 22.5542 3.58593 22.6367V25.1014C3.58593 25.4184 3.71186 25.7224 3.93602 25.9466C4.16019 26.1708 4.46422 26.2967 4.78123 26.2967H5.97654C6.29355 26.2967 6.59758 26.1708 6.82174 25.9466C7.04591 25.7224 7.17184 25.4184 7.17184 25.1014V22.7108H21.5155V25.1014C21.5155 25.4184 21.6414 25.7224 21.8656 25.9466C22.0897 26.1708 22.3938 26.2967 22.7108 26.2967H23.9061C24.2231 26.2967 24.5271 26.1708 24.7513 25.9466C24.9755 25.7224 25.1014 25.4184 25.1014 25.1014V22.6367C25.1014 22.5542 25.0703 22.4813 25.0548 22.4036C25.4294 22.1994 25.7423 21.8983 25.9607 21.5318C26.1792 21.1653 26.2952 20.7468 26.2967 20.3202V14.3437C26.2967 13.3528 25.6895 12.5017 24.8289 12.1395ZM4.78123 20.3202V14.3437H23.9061L23.9085 20.3202H4.78123ZM8.89427 7.17184H19.7919C20.307 7.17184 20.7636 7.49935 20.9262 7.98943L22.2482 11.9531H6.43912L7.75993 7.98943C7.83924 7.75131 7.99148 7.54421 8.19508 7.39746C8.39868 7.25072 8.6433 7.17178 8.89427 7.17184Z" fill="#232738"/>
<path d="M7.76952 19.1249C8.75974 19.1249 9.56247 18.3221 9.56247 17.3319C9.56247 16.3417 8.75974 15.5389 7.76952 15.5389C6.7793 15.5389 5.97656 16.3417 5.97656 17.3319C5.97656 18.3221 6.7793 19.1249 7.76952 19.1249Z" fill="#232738"/>
<path d="M20.918 19.1249C21.9082 19.1249 22.7109 18.3221 22.7109 17.3319C22.7109 16.3417 21.9082 15.5389 20.918 15.5389C19.9277 15.5389 19.125 16.3417 19.125 17.3319C19.125 18.3221 19.9277 19.1249 20.918 19.1249Z" fill="#232738"/>
</svg>
