<svg width="28" height="28" viewBox="0 0 28 28" fill="none" xmlns="http://www.w3.org/2000/svg">
<g clip-path="url(#clip0_169_281)">
<path d="M25.5391 4.97646H14.3245L17.8644 1.397C18.1829 1.07505 18.1801 0.555523 17.858 0.237023C17.5359 -0.0816962 17.0166 -0.078743 16.6981 0.243421L12.3594 4.63018L8.02069 0.243421C7.70219 -0.0786884 7.18288 -0.0814774 6.86077 0.237023C6.53855 0.555523 6.53581 1.07505 6.85431 1.39694L10.3942 4.97646H2.46094C1.10398 4.97646 0 6.08049 0 7.4374V23.8983C0 25.2553 1.10398 26.3593 2.46094 26.3593H3.81664L3.57629 26.5996C3.25582 26.9198 3.25582 27.4394 3.57629 27.7595C3.73625 27.9198 3.94625 27.9999 4.15625 27.9999C4.36625 27.9999 4.57625 27.9198 4.73621 27.7595L6.13676 26.3593H21.9181L23.3185 27.7595C23.4784 27.9198 23.6884 27.9999 23.8984 27.9999C24.1084 27.9999 24.3184 27.9198 24.4784 27.7595C24.7989 27.4394 24.7989 26.92 24.4784 26.5996L24.2383 26.3593H25.5391C26.896 26.3593 28 25.2552 28 23.8983V7.4374C28 6.08044 26.896 4.97646 25.5391 4.97646ZM26.3594 23.8983C26.3594 24.3506 25.9913 24.7186 25.5391 24.7186H2.46094C2.00867 24.7186 1.64062 24.3506 1.64062 23.8983V7.4374C1.64062 6.98513 2.00867 6.61708 2.46094 6.61708H25.5391C25.9913 6.61708 26.3594 6.98513 26.3594 7.4374V23.8983Z" fill="#232738"/>
<path d="M17.2812 8.25781H5.79688C4.43991 8.25781 3.33594 9.36184 3.33594 10.7188V20.5625C3.33594 21.9195 4.43997 23.0234 5.79688 23.0234H17.2812C18.6382 23.0234 19.7422 21.9194 19.7422 20.5625V10.7188C19.7422 9.36179 18.6382 8.25781 17.2812 8.25781ZM18.1016 20.5625C18.1016 21.0148 17.7335 21.3828 17.2812 21.3828H5.79688C5.34461 21.3828 4.97656 21.0148 4.97656 20.5625V10.7188C4.97656 10.2665 5.34461 9.89844 5.79688 9.89844H17.2812C17.7335 9.89844 18.1016 10.2665 18.1016 10.7188V20.5625ZM23.0781 9.07812C22.1734 9.07812 21.4375 9.81405 21.4375 10.7188C21.4375 11.6234 22.1734 12.3594 23.0781 12.3594C23.9828 12.3594 24.7188 11.6234 24.7188 10.7188C24.7188 9.81405 23.9828 9.07812 23.0781 9.07812ZM23.8984 14H22.2578C21.8047 14 21.4375 14.3672 21.4375 14.8203C21.4375 15.2734 21.8047 15.6406 22.2578 15.6406H23.8984C24.3515 15.6406 24.7188 15.2734 24.7188 14.8203C24.7188 14.3672 24.3515 14 23.8984 14ZM23.8984 17.2812H22.2578C21.8047 17.2812 21.4375 17.6485 21.4375 18.1016C21.4375 18.5546 21.8047 18.9219 22.2578 18.9219H23.8984C24.3515 18.9219 24.7188 18.5546 24.7188 18.1016C24.7188 17.6485 24.3515 17.2812 23.8984 17.2812ZM23.8984 20.5625H22.2578C21.8047 20.5625 21.4375 20.9297 21.4375 21.3828C21.4375 21.8359 21.8047 22.2031 22.2578 22.2031H23.8984C24.3515 22.2031 24.7188 21.8359 24.7188 21.3828C24.7188 20.9297 24.3515 20.5625 23.8984 20.5625Z" fill="#232738"/>
</g>
<defs>
<clipPath id="clip0_169_281">
<rect width="28" height="28" fill="white"/>
</clipPath>
</defs>
</svg>
