<svg width="29" height="29" viewBox="0 0 29 29" fill="none" xmlns="http://www.w3.org/2000/svg">
<path d="M14.3437 25.9301C15.664 25.9301 16.7343 24.8598 16.7343 23.5395C16.7343 22.2192 15.664 21.1489 14.3437 21.1489C13.0234 21.1489 11.9531 22.2192 11.9531 23.5395C11.9531 24.8598 13.0234 25.9301 14.3437 25.9301Z" fill="#232738"/>
<path d="M26.1053 7.47463C22.5732 5.26414 18.4904 4.09192 14.3236 4.09192C10.1568 4.09192 6.07404 5.26414 2.5419 7.47463C2.40473 7.55841 2.28573 7.66882 2.19194 7.79935C2.09814 7.92987 2.03145 8.07787 1.9958 8.2346C1.96014 8.39133 1.95625 8.55361 1.98435 8.71187C2.01245 8.87012 2.07197 9.02115 2.1594 9.15602L2.24706 9.29149C2.41512 9.54519 2.67418 9.72467 2.97076 9.79288C3.26733 9.8611 3.57878 9.81283 3.84079 9.65805C6.97525 7.68866 10.6019 6.64389 14.3037 6.64389C18.0055 6.64389 21.6321 7.68866 24.7666 9.65805C25.0286 9.81283 25.34 9.8611 25.6366 9.79288C25.9332 9.72467 26.1922 9.54519 26.3603 9.29149L26.448 9.15602C26.5372 9.02355 26.5992 8.87464 26.6302 8.71797C26.6613 8.5613 26.6609 8.40002 26.629 8.24351C26.5971 8.08701 26.5344 7.93842 26.4445 7.80641C26.3546 7.6744 26.2393 7.56161 26.1053 7.47463Z" fill="#232738"/>
<path d="M22.9654 12.3037C20.3689 10.6938 17.3745 9.84082 14.3194 9.84082C11.2643 9.84082 8.26984 10.6938 5.67334 12.3037C5.53856 12.3888 5.42202 12.4998 5.3305 12.6302C5.23897 12.7607 5.17428 12.9081 5.14017 13.0638C5.10607 13.2195 5.10324 13.3804 5.13184 13.5372C5.16044 13.694 5.2199 13.8435 5.30678 13.9771L5.39443 14.1126C5.5625 14.3663 5.82156 14.5458 6.11813 14.614C6.41471 14.6822 6.72615 14.6339 6.98817 14.4792C9.18436 13.1152 11.7182 12.3924 14.3034 12.3924C16.8887 12.3924 19.4225 13.1152 21.6187 14.4792C21.8807 14.6339 22.1921 14.6822 22.4887 14.614C22.7853 14.5458 23.0444 14.3663 23.2124 14.1126L23.3001 13.9771C23.3884 13.8454 23.4499 13.6975 23.4809 13.542C23.5119 13.3865 23.5118 13.2263 23.4807 13.0708C23.4496 12.9153 23.3881 12.7675 23.2996 12.6358C23.2112 12.5042 23.0976 12.3913 22.9654 12.3037Z" fill="#232738"/>
<path d="M19.8261 17.1247C18.1634 16.125 16.2599 15.5968 14.3198 15.5968C12.3796 15.5968 10.4761 16.125 8.81341 17.1247C8.67889 17.209 8.56253 17.3193 8.47109 17.4491C8.37966 17.5788 8.31499 17.7255 8.28087 17.8806C8.24675 18.0356 8.24385 18.1959 8.27235 18.3521C8.30084 18.5082 8.36016 18.6572 8.44685 18.7902L8.52653 18.9177C8.70188 19.1768 8.97072 19.3581 9.27672 19.4234C9.58273 19.4888 9.90216 19.4332 10.1681 19.2683C11.4263 18.5276 12.8597 18.137 14.3198 18.137C15.7798 18.137 17.2132 18.5276 18.4715 19.2683C18.7383 19.4324 19.0584 19.4868 19.3645 19.4199C19.6706 19.3531 19.9389 19.1702 20.113 18.9097L20.1927 18.7822C20.2792 18.6498 20.3384 18.5015 20.3668 18.346C20.3952 18.1904 20.3922 18.0307 20.3581 17.8764C20.3239 17.722 20.2593 17.5759 20.1679 17.4469C20.0766 17.3178 19.9604 17.2083 19.8261 17.1247Z" fill="#232738"/>
</svg>
